/* XPM */
static char *_14c57ade9b74f26b689e0bcc17caf61[] = {
/* columns rows colors chars-per-pixel */
"64 64 161 2 ",
"   c #000001",
".  c #010102",
"X  c #020203",
"o  c #030304",
"O  c #040405",
"+  c #050506",
"@  c #060607",
"#  c #070708",
"$  c #080809",
"%  c #09090A",
"&  c #0A0A0B",
"*  c #0B0B0C",
"=  c #0C0C0D",
"-  c #0D0D0E",
";  c #0E0E0F",
":  c #101011",
">  c #111112",
",  c #121213",
"<  c #131314",
"1  c #141415",
"2  c #151516",
"3  c #161617",
"4  c #171718",
"5  c #181819",
"6  c #191919",
"7  c #19191A",
"8  c #1A1A1B",
"9  c #1B1B1C",
"0  c #1C1C1D",
"q  c #1D1D1D",
"w  c #1D1D1E",
"e  c #1E1E1E",
"r  c #1E1E1F",
"t  c #202021",
"y  c #212122",
"u  c #222223",
"i  c #232323",
"p  c #232324",
"a  c #242425",
"s  c #252526",
"d  c #262627",
"f  c #272727",
"g  c #272728",
"h  c #282829",
"j  c #29292A",
"k  c #2A2A2A",
"l  c #2A2A2B",
"z  c gray17",
"x  c #2B2B2C",
"c  c #2C2C2C",
"v  c #2C2C2D",
"b  c #2D2D2D",
"n  c #2D2D2E",
"m  c #2E2E2F",
"M  c #2F2F2F",
"N  c gray19",
"B  c #303031",
"V  c #313132",
"C  c #323233",
"Z  c #333334",
"A  c #343434",
"S  c #343435",
"D  c #353535",
"F  c #353536",
"G  c #363637",
"H  c #373738",
"J  c #383839",
"K  c #3A3A3B",
"L  c gray23",
"P  c #3B3B3C",
"I  c #3C3C3C",
"U  c #3C3C3D",
"Y  c gray24",
"T  c #3D3D3E",
"R  c #3E3E3F",
"E  c #3F3F40",
"W  c gray25",
"Q  c #404041",
"!  c #414142",
"~  c #424243",
"^  c #434343",
"/  c #434344",
"(  c #444444",
")  c #444445",
"_  c gray27",
"`  c #454546",
"'  c #464647",
"]  c gray28",
"[  c #474748",
"{  c #484848",
"}  c #484849",
"|  c #494949",
" . c #49494A",
".. c #4A4A4B",
"X. c #4B4B4B",
"o. c #4C4C4C",
"O. c #4C4C4D",
"+. c #4D4D4E",
"@. c #4E4E4E",
"#. c #4E4E4F",
"$. c #4F4F50",
"%. c #505050",
"&. c #505051",
"*. c gray32",
"=. c #535353",
"-. c gray33",
";. c #555556",
":. c #565656",
">. c #565657",
",. c #575758",
"<. c #585858",
"1. c #585859",
"2. c #59595A",
"3. c #5A5A5A",
"4. c #5A5A5B",
"5. c #5B5B5C",
"6. c gray36",
"7. c #5D5D5D",
"8. c #5F5F60",
"9. c #606060",
"0. c #626262",
"q. c gray39",
"w. c #636364",
"e. c #656565",
"r. c gray40",
"t. c #676768",
"y. c #686868",
"u. c #69696A",
"i. c gray42",
"p. c #6B6B6C",
"a. c #6C6C6D",
"s. c #6F6F70",
"d. c gray44",
"f. c #727273",
"g. c #737374",
"h. c #747475",
"j. c #777778",
"k. c gray47",
"l. c #7C7C7C",
"z. c #7C7C7D",
"x. c #7F7F80",
"c. c #838384",
"v. c gray52",
"b. c #868686",
"n. c #878788",
"m. c #89898A",
"M. c gray54",
"N. c #8B8B8C",
"B. c gray56",
"V. c #909090",
"C. c #939393",
"Z. c #959595",
"A. c #979798",
"S. c gray61",
"D. c #9F9F9F",
"F. c #9F9FA0",
"G. c #A7A7A8",
"H. c #B7B7B7",
"J. c gray75",
"K. c #D7D7D7",
"L. c None",
/* pixels */
"L.L.L.L.L.L.L.L.L.L.L.L.L.L.L.L.L.L.L.L.L.L.L.L.L.L.L.L.L.L.L.L.L.L.L.L.L.L.L.L.L.L.L.L.L.L.L.L.L.L.L.L.L.L.L.L.L.L.L.L.L.L.L.L.",
"L.L.L.L.L.L.L.L.L.L.L.L.L.L.L.L.L.L.L.L.L.L.L.L.L.L.L.L.L.L.L.L.L.L.L.L.L.L.L.L.L.L.L.L.L.L.L.L.L.L.L.L.L.L.L.L.L.L.L.L.L.L.L.L.",
"L.L.L.L.L.L.L.L.L.L.L.L.L.L.L.L.L.L.L.L.L.L.L.L.L.L.L.L.L.L.L.L.L.L.L.L.L.L.L.L.L.L.L.L.L.L.L.L.L.L.L.L.L.L.L.L.L.L.L.L.L.L.L.L.",
"L.L.L.L.L.L.L.L.L.L.L.L.L.L.L.L.L.L.L.L.L.L.L.L.L.L.L.L.L.L.L.L.L.L.L.L.L.L.L.L.L.L.L.L.L.L.L.L.L.L.L.L.L.L.L.L.L.L.L.L.L.L.L.L.",
"L.L.L.L.L.L.L.L.L.L.L.L.L.L.L.L.L.L.L.L.L.L.L.L.L.~ L.L.L.L.L.L.L.L.L.L.L.L.L.L.L.L.L.L.L.L.L.L.L.L.L.L.L.L.L.L.L.L.L.L.L.L.L.L.",
"L.L.L.L.L.L.L.L.L.L.L.L.L.L.L.L.L.L.L.L.L.L.L.L.  N t 4.L.L.L.L.L.L.L.L.L.L.L.L.L.L.L.L.L.L.L.L.L.L.L.L.L.L.L.L.L.L.L.L.L.L.L.L.",
"L.L.L.L.L.L.L.L.L.L.L.L.L.L.L.L.L.L.L.L.L.L.L. .G L.L.b L.L.L.L.L.L.L.L.L.L.L.L.L.L.L.L.L.L.L.L.L.L.L.L.L.L.L.L.L.L.L.L.L.L.L.L.",
"L.L.L.L.L.L.L.L.L.L.L.L.L.L.L.L.L.L.L.L.L.L.L.V   L.L.V L.L.L.L.L.L.L.L.L.L.L.L.L.L.L.L.L.L.L.L.L.L.L.L.L.L.L.L.L.L.L.L.L.L.L.L.",
"L.L.L.L.L.L.L.L.L.L.L.L.L.L.L.L.L.L.L.L.L.L.L.  8.L.L.` L.L.L.~ F.L.L.L.L.L.L.L.L.L.L.L.L.L.L.L.L.L.L.L.L.L.L.L.L.L.L.L.L.L.L.L.",
"L.L.L.L.L.L.L.L.L.L.L.L.L.L.L.L.L.L.L.L.L.L.L.: J.L.L.y.L.L.L.: t V L.L.L.L.L.L.L.L.L.L.L.L.L.L.L.L.L.L.L.L.L.L.L.L.L.L.L.L.L.L.",
"L.L.L.L.L.L.L.L.L.L.L.L.L.L.L.L.L.L.L.L.L.L.L.U J.L.L.A.L.L.L.L.s G.- L.L.L.L.L.L.L.L.L.L.L.L.L.L.L.L.L.L.L.L.L.L.L.L.L.L.L.L.L.",
"L.L.L.L.L.L.L.L.L.L.L.L.L.L.L.L.L.L.L.L.L.L.L.=.s.L.L.L.L.L.L.L.  B.=.K L.L.L.L.L.L.L.L.L.L.L.L.L.L.L.L.L.L.L.L.L.L.L.L.L.L.L.L.",
"L.L.L.L.L.L.L.L.L.L.L.L.L.L.L.L.L.L.L.L.L.L.L.s : L.L.L.L.L.L.L.s n.h.$ L.L.L.L.L.L.L.L.L.L.L.L.L.L.L.L.L.L.L.L.L.L.L.L.L.L.L.L.",
"L.L.L.L.L.L.L.L.L.L.L.L.L.L.L.L.L.L.L.L.L.L.L.L.~ L.L.L.L.L.L.L.V L.    L.L.L.L.L.L.L.L.L.L.L.L.L.L.L.L.L.L.L.L.L.L.L.L.L.L.L.L.",
"L.L.L.L.L.L.L.L.L.L.L.L.L.L.L.L.L.L.L.L.L.L.L.L. .L.L.L.L.L.L.L.  L.b ; b L.L.L.L.L.L.L.L.L.L.~   s t L.L.L.L.L.L.L.L.L.L.L.L.L.",
"L.L.L.L.L.L.L.L.L.L.L.L.L.L.L.L.V r 7 V L.L.L.L.7 L.L.L.L.L.L.g H L.@.=.t L.L.L.L.N L.L.L.L.L.` L.V y.k L.L.L.L.L.L.L.L.L.L.L.L.",
"L.L.L.L.L.L.L.L.L.L.L.L.L.L.m.b s G L.U t K L.L.L.t L.L.L.L.L.k b a.r   r L.L.L.4 L.L.L.L.L.L.L.L.K L.V L.L.L.L.L.L.L.L.L.L.L.L.",
"L.L.L.L.L.L.L.L.L.L.L.L.L.L.L.L.L.G 9.L.L.7 x L.L. .L.L.L.L.c.  L.=.    9 L.L.p =.L.L.L.L.L.L.L.w.t L.g L.L.L.L.L.L.L.L.L.L.L.L.",
"L.L.L.L.L.L.L.L.L.L.L.L.L.L.L.L.L.L.t L.v.L.  e.L.L.- L.L.L.: 9.t       @ L.t V L.L.L.L.s.  ` @ U L.L.V L.L.L.L.L.L.L.L.L.L.L.L.",
"L.L.L.L.L.L.L.L.L.L.L.L.L.L.L.L.L.L.7 L.L.4.t.  m.L.4 k 4.7               b   L.L.3 =.  3  .8.L.L.L.t  .L.L.L.L.L.L.L.L.L.L.L.L.",
"L.L.L.L.L.L.L.L.L.L.L.L.L.L.L.L.L.L.b k L.G L.V   4.b                         3      .~ L.v.P / e.7 r e.X.7 b E : k 7 L.L.L.L.  ",
"L.L.L.L.L.L.L.L.L.L.L.L.L.L.L.L.L.L.L.: L.K.b L.                                   .- h.~ V L.:.$   $ t n.L.L.L.L.L.K t 5.L.L.K ",
"L.L.L.L.L.L.L.L.L.L.L.L.L.L.L.L.L.L.L.  c.V ,.U                                     - $ L.y.$     V L.L.L.L.L.L.L.L.L.L.p k K $ ",
"L.L.L.L.L.L.L.L.L.L.L.L.L.L.L.L.L.L.L.p G k V                                         7 K     3 L.L.L.L.L.L.L.L.L.L.L.L.L.L.9.L.",
"L.L.L.L.L.L.L.L.L.L.L.L.L.L.L.L.L.L.L.S   V.                                                V 4.7 : 4.L.L.L.L.L.L.L.L.L.L.L.L.L.",
"L.L.L.L.L.L.L.L.L.L.L.L.L.V.L.L.L.L.L.L.@                                                   o   s : L.L.L.L.L.L.L.L.L.L.L.L.L.L.",
"L.L.L.L.L.L.L.L.L.L.L.L.L.L.L.V s r t k G                                                   $ L.L.L.L.L.L.L.L.L.L.L.L.L.L.L.L.L.",
"L.L.L.L.L.L.L.L.L.L.L.L.L.L.L.L.L.L.s                                                         b L.L.L.L.L.L.L.L.L.L.L.L.L.L.L.L.",
"L.L.L.L.L.L.L.L.L.L.L.L.L.L.L.L.L.L.b t                                                           - p L.L.L.L.L.L.L.L.L.L.L.L.L.",
"L.L.L.L.L.L.L.L.L.L.L.L.L.L.L.L.s @                                                           $.s   /   s L.L.L.L.L.L.L.L.L.L.L.",
"L.L.L.L.L.L.L.L.L.L.L.L.L.L.` $ # ~ L.t                                                       ; :.` K L.E s [ L.L.L.L.L.L.L.L.L.",
"L.L.L.L.L.L.L.L.L.L.L.L.t.: U =.G  .7                                                         - D.L.L.L.L.L.G @ L.L.L.L.L.L.L.L.",
"L.L.L.L.L.L.L.b L.L.L.- G =.k K   E L.                                                          : 6.U b 7 L.L.L.t  .  ` s L.L.L.",
"L.L.L.L.L.L.L.* 7 t s 9.e.L.S.G s 9 b                                                         7 L.L.9.L. .@.L.L.L.(  .p L.L.L.L.",
"L.L.L.L.L.L.L.k g.L.L.L.L.L.L.L.L.L.L.$                                                       $ @       @ r :.L.L. .k 8.L.L.L.L.",
"L.L.L.L.L.L.L.L.7 U U 9.7.V s 7 k @                                                             : ~ L.L.L.:.r s ~ 3 L.L.L.L.L.L.",
"L.L.L.L.L.L.L.L.L.k t r s t -                                                                 G L.L.L.L.L.L.L.L.L.L.L.L.L.L.L.L.",
"L.L.L.L.L.L.L.L.L.L.L.L.L.V $ U L.G                                                           G L.L.L.L.L.L.L.L.L.L.L.L.L.L.L.L.",
"L.f.L.L.L.L.L.L.L.L.L.G   f.L.L.t                                                                 @ 7 7.L.L.L.L.L.L.L.L.L.L.L.L.",
"L.L. .L.L.L.L.L.L.r g @ L.L.L.s r r L.V                                                     $.L.:     V V L.L.L.L.L.L.L.L.L.L.L.",
"L.L.L.@ p `  .V   K f.L.L.:.~  .L.L.k   %.                                                  9.L.L.L.L.L.L.L.L.L.L.L.L.L.L.L.L.L.",
"L.L.L.L.L.3   3 L.L.L.L.L.L.L.L.L.4.  f.k a.                                                  9.L.L.L.L.L.L.L.L.L.L.L.L.L.L.L.L.",
"L.L.L.L.L.L.L.L.L.L.L.L.L.L.L.L.L.# / L.h.` :                                           @ [ V   ( L.L.L.L.L.L.L.L.L.L.L.L.L.L.L.",
"L.L.L.L.L.L.L.L.L.L.L.L.L.L.L.L.~ k L.k.N.  s                                           =.t L.w.- b L.L.L.L.L.L.L.L.L.L.L.L.L.L.",
"L.L.L.L.L.L.L.L.L.L.L.L.L.L.L.L.# L.L./ 3   s K G                                   k z.t ,.s L.L.k 3 L.L.L.L.L.L.L.L.L.L.L.L.L.",
"L.L.L.L.L.L.L.L.L.L.L.L.L.L.L.H 7 L.k - V L.L.L.L.:                             $     7 9. .V e.L.L.s K L.L.L.L.L.L.L.L.L.L.L.L.",
"L.L.L.L.L.L.L.L.L.L.L.L.L.L.L.s K / t L.L.L.L.L.]   U  .                  $ V L.L.I   7 : 9 f.L.L.L.L.r L.L.L.L.L.L.L.L.L.L.L.L.",
"L.L.L.L.L.L.L.L.L.L.L.L.L.L.L.t g 9 L.L.L.L.L.L.` 3 L.g   E b $ r b   t L.L.L.L.L.L.V   L.` : 3 L.L.L.p L.L.L.L.L.L.L.L.L.L.L.L.",
"L.L.L.L.L.L.L.L.L.L.L.L.L.L.L.` $ :.U L.L.L.L.L.  L.L.k 7  .L.  k.  ~ L.L.L.L.L.L.L.    L.L.L.@.: L.V ~ L.L.L.L.L.L.L.L.L.L.L.L.",
"L.L.L.L.L.L.L.L.L.L.L.L.L.L.L.L.G - - x H.L.L.:.K L.L.r * [ L. .V b L.L.L.L.L.L.L.L.s : L.L.L.L.g L.V L.L.L.L.L.L.L.L.L.L.L.L.L.",
"L.L.L.L.L.L.L.L.L.L.L.L.L.L.L.L.L.L.    [ L.p. .L.L.L.~ - v.D.    @.j.t.L.L.L.L.L.L.  L.L.L.L.L.: H z.L.L.L.L.L.L.L.L.L.L.L.L.L.",
"L.L.L.L.L.L.L.L.L.L.L.L.L.L.L.L.L.L.L.L.L.L.L.L.L.L.L.L.3 L.K.    L.L.H 7.L.L.L.L.r Z.L.L.L.L.L.=.L.L.L.L.L.L.L.L.L.L.L.L.L.L.L.",
"L.L.L.L.L.L.L.L.L.L.L.L.L.L.L.L.L.L.L.L.L.L.L.L.L.L.L.L.7 e.L.    L.L.L. .V   b x N.L.L.L.L.L.L.L.L.L.L.L.L.L.L.L.L.L.L.L.L.L.L.",
"L.L.L.L.L.L.L.L.L.L.L.L.L.L.L.L.L.L.L.L.L.L.L.L.L.L.L.L.4.; L.L.  L.L.L.L.L.L.L.L.L.L.L.L.L.L.L.L.L.L.L.L.L.L.L.L.L.L.L.L.L.L.L.",
"L.L.L.L.L.L.L.L.L.L.L.L.L.L.L.L.L.L.L.L.L.L.L.L.L.L.L.L.L.:.; L.  L.L.L.L.L.L.L.L.L.L.L.L.L.L.L.L.L.L.L.L.L.L.L.L.L.L.L.L.L.L.L.",
"L.L.L.L.L.L.L.L.L.L.L.L.L.L.L.L.L.L.L.L.L.L.L.L.L.L.L.L.L.L.V t G L.L.L.L.L.L.L.L.L.L.L.L.L.L.L.L.L.L.L.L.L.L.L.L.L.L.L.L.L.L.L.",
"L.L.L.L.L.L.L.L.L.L.L.L.L.L.L.L.L.L.L.L.L.L.L.L.L.L.L.L.L.L.L.` * J.L.L.L.L.L.L.L.L.L.L.L.L.L.L.L.L.L.L.L.L.L.L.L.L.L.L.L.L.L.L.",
"L.L.L.L.L.L.L.L.L.L.L.L.L.L.L.L.L.L.L.L.L.L.L.L.L.L.L.L.L.L.L.L.r L.L.L.L.L.L.L.L.L.L.L.L.L.L.L.L.L.L.L.L.L.L.L.L.L.L.L.L.L.L.L.",
"L.L.L.L.L.L.L.L.L.L.L.L.L.L.L.L.L.L.L.L.L.L.L.L.L.L.L.L.L.L.L.L.L.L.L.L.L.L.L.L.L.L.L.L.L.L.L.L.L.L.L.L.L.L.L.L.L.L.L.L.L.L.L.L.",
"L.L.L.L.L.L.L.L.L.L.L.L.L.L.L.L.L.L.L.L.L.L.L.L.L.L.L.L.L.L.L.L.L.L.L.L.L.L.L.L.L.L.L.L.L.L.L.L.L.L.L.L.L.L.L.L.L.L.L.L.L.L.L.L.",
"L.L.L.L.L.L.L.L.L.L.L.L.L.L.L.L.L.L.L.L.L.L.L.L.L.L.L.L.L.L.L.L.L.L.L.L.L.L.L.L.L.L.L.L.L.L.L.L.L.L.L.L.L.L.L.L.L.L.L.L.L.L.L.L.",
"L.L.L.L.L.L.L.L.L.L.L.L.L.L.L.L.L.L.L.L.L.L.L.L.L.L.L.L.L.L.L.L.L.L.L.L.L.L.L.L.L.L.L.L.L.L.L.L.L.L.L.L.L.L.L.L.L.L.L.L.L.L.L.L.",
"L.L.L.L.L.L.L.L.L.L.L.L.L.L.L.L.L.L.L.L.L.L.L.L.L.L.L.L.L.L.L.L.L.L.L.L.L.L.L.L.L.L.L.L.L.L.L.L.L.L.L.L.L.L.L.L.L.L.L.L.L.L.L.L.",
"L.L.L.L.L.L.L.L.L.L.L.L.L.L.L.L.L.L.L.L.L.L.L.L.L.L.L.L.L.L.L.L.L.L.L.L.L.L.L.L.L.L.L.L.L.L.L.L.L.L.L.L.L.L.L.L.L.L.L.L.L.L.L.L."
};
