/* XPM */
static char *_39dec4a59b84b65c9a40c18fb98cc76[] = {
/* columns rows colors chars-per-pixel */
"36 36 102 2 ",
"   c #000001",
".  c #020203",
"X  c #030304",
"o  c #040405",
"O  c #060607",
"+  c #070708",
"@  c #080809",
"#  c #09090A",
"$  c #0B0B0C",
"%  c #0C0C0D",
"&  c #0E0E0F",
"*  c #101011",
"=  c #111112",
"-  c #121213",
";  c #131314",
":  c #141415",
">  c #151516",
",  c #161617",
"<  c #171718",
"1  c #181819",
"2  c #19191A",
"3  c #1A1A1B",
"4  c #1B1B1B",
"5  c #1B1B1C",
"6  c #1C1C1D",
"7  c #1D1D1E",
"8  c #1E1E1F",
"9  c gray12",
"0  c #202021",
"q  c #222223",
"w  c #232324",
"e  c #242425",
"r  c #252526",
"t  c #262627",
"y  c #272728",
"u  c #282828",
"i  c #282829",
"p  c #2A2A2A",
"a  c #2A2A2B",
"s  c #2B2B2C",
"d  c #2C2C2C",
"f  c #2C2C2D",
"g  c #2D2D2E",
"h  c #2F2F30",
"j  c gray19",
"k  c #303031",
"l  c #313132",
"z  c gray20",
"x  c #333334",
"c  c #343434",
"v  c #343435",
"b  c #353535",
"n  c #353536",
"m  c gray21",
"M  c #373738",
"N  c #383839",
"B  c #39393A",
"V  c #3A3A3A",
"C  c #3A3A3B",
"Z  c #3C3C3D",
"A  c #3D3D3E",
"S  c #3E3E3F",
"D  c gray25",
"F  c #404041",
"G  c #424243",
"H  c #434344",
"J  c #444445",
"K  c #454546",
"L  c #464647",
"P  c gray28",
"I  c #474748",
"U  c gray29",
"Y  c #4A4A4B",
"T  c #4B4B4B",
"R  c #4C4C4D",
"E  c #4E4E4F",
"W  c #505050",
"Q  c #535354",
"!  c gray33",
"~  c #555556",
"^  c #565656",
"/  c #575758",
"(  c #585858",
")  c #5A5A5A",
"_  c #5A5A5B",
"`  c #5B5B5B",
"'  c #606060",
"]  c #616162",
"[  c gray40",
"{  c #676768",
"}  c DimGray",
"|  c #6F6F70",
" . c gray47",
".. c #7B7B7C",
"X. c #7F7F80",
"o. c #838384",
"O. c gray52",
"+. c #898989",
"@. c #8F8F90",
"#. c #979798",
"$. c #BBBBBB",
"%. c None",
/* pixels */
"%.%.%.%.%.%.%.%.%.%.%.%.%.%.%.%.%.%.%.%.%.%.%.%.%.%.%.%.%.%.%.%.%.%.%.%.",
"%.%.%.%.%.%.%.%.%.%.%.%.%.%.%.%.%.%.%.%.%.%.%.%.%.%.%.%.%.%.%.%.%.%.%.%.",
"%.%.%.%.%.%.%.%.%.%.%.%.%.%.%.%.%.%.%.%.%.%.%.%.%.%.%.%.%.%.%.%.%.%.%.%.",
"%.%.%.%.%.%.%.%.%.%.%.%.%.o E L %.%.%.%.%.%.%.%.%.%.%.%.%.%.%.%.%.%.%.%.",
"%.%.%.%.%.%.%.%.%.%.%.%.%.0 %.0 %.%.%.%.%.%.%.%.%.%.%.%.%.%.%.%.%.%.%.%.",
"%.%.%.%.%.%.%.%.%.%.%.%.%.* %.%.%.%.R { %.%.%.%.%.%.%.%.%.%.%.%.%.%.%.%.",
"%.%.%.%.%.%.%.%.%.%.%.%.%.b %.%.%.%.  W %.%.%.%.%.%.%.%.%.%.%.%.%.%.%.%.",
"%.%.%.%.%.%.%.%.%.%.%.%.%.1 %.%.%.%.  O.w %.%.%.%.%.%.%.%.%.%.%.%.%.%.%.",
"%.%.%.%.%.%.%.%.%.%.a %.%.%.%.%.%.%._ $., %.%.%.%.%.%.0 B %.%.%.%.%.%.%.",
"%.%.%.%.%.%.%.%. .B %.* L %.] %.%.W e _   %./ %.%.%.%.%.[ ! %.%.%.%.%.%.",
"%.%.%.%.%.%.%.%.%.%.b @.0 %.a %.%.,   l   %.1 %.%.B a 0 %.%.%.%.%.%.%.%.",
"%.%.%.%.%.%.%.%.%.%.  %.U   %., *           , 8 W | h U d %.    o %.%.%.",
"%.%.%.%.%.%.%.%.%.%.%.d B M                     b F *   e %.%.%.%._ L Q ",
"%.%.%.%.%.%.%.%.%.%.%.8 w                       5 & # %.%.%.%.%.%.%.%.%.",
"%.%.%.%.%.%.%.%.F %.%.8 #                           + ; # %.%.%.%.%.%.%.",
"%.%.%.%.%.%.%.%.%.1 8 e                             ; %.%.%.%.%.%.%.%.%.",
"%.%.%.%.%.%.%.%.%.%.C                               & d S # %.%.%.%.%.%.",
"%.%.%.%.%.%.%.%.& S U                                   %.%.# %.%.%.%.%.",
"%.%.%.%.d %.W d #.  !                                 8 ..F %.1 #   %.%.",
"%.%.%.%.l C %.%.( %.%.                                5   s F %.b b %.%.",
"%.%.%.%.%.b b w                                     o %.%.%.%.%.%.%.%.%.",
"%.%.%.%.%.%.%.5 j %.#                               # 1 %.%.%.%.%.%.%.%.",
"%.E %.%.%.    %.S & %.o                             +.a   } %.%.%.%.%.%.",
"%.%.o.    %.%.%.%.%.d %.&                         o 0 %.%.%.%.%.%.%.%.%.",
"%.%.%.%.%.%.%.%.%.l %.] a                         a L L %.%.%.%.%.%.%.%.",
"%.%.%.%.%.%.%.%.%.h / h   %.<                   R U x %.8 %.%.%.%.%.%.%.",
"%.%.%.%.%.%.%.%.%.  # %.%.%.* F 8 o     1 1 %._   a S %.%.%.%.%.%.%.%.%.",
"%.%.%.%.%.%.%.%.%.y 1 %.%.%.b   d 0 T * %.%.%.%.  %.%.M S %.%.%.%.%.%.%.",
"%.%.%.%.%.%.%.%.%.%.    %.Y %.  l   s { %.%.%.%.  %.%.F F %.%.%.%.%.%.%.",
"%.%.%.%.%.%.%.%.%.%.%.%.%.%.%.%.1   b %.x b , l %.%.%.%.%.%.%.%.%.%.%.%.",
"%.%.%.%.%.%.%.%.%.%.%.%.%.%.%.%.h %.o.%.%.%.%.%.%.%.%.%.%.%.%.%.%.%.%.%.",
"%.%.%.%.%.%.%.%.%.%.%.%.%.%.%.%.%.d ; %.%.%.%.%.%.%.%.%.%.%.%.%.%.%.%.%.",
"%.%.%.%.%.%.%.%.%.%.%.%.%.%.%.%.%.%._ %.%.%.%.%.%.%.%.%.%.%.%.%.%.%.%.%.",
"%.%.%.%.%.%.%.%.%.%.%.%.%.%.%.%.%.%.%.%.%.%.%.%.%.%.%.%.%.%.%.%.%.%.%.%.",
"%.%.%.%.%.%.%.%.%.%.%.%.%.%.%.%.%.%.%.%.%.%.%.%.%.%.%.%.%.%.%.%.%.%.%.%.",
"%.%.%.%.%.%.%.%.%.%.%.%.%.%.%.%.%.%.%.%.%.%.%.%.%.%.%.%.%.%.%.%.%.%.%.%."
};
