/* XPM */
static char *ae308e3d340e4323b8d0bfa34dff6078[] = {
/* columns rows colors chars-per-pixel */
"16 16 28 1 ",
"  c #000001",
". c #020203",
"X c #040405",
"o c #080809",
"O c #0B0B0C",
"+ c #0D0D0E",
"@ c #101011",
"# c #141415",
"$ c #161617",
"% c #171718",
"& c #181819",
"* c #19191A",
"= c #202021",
"- c #222223",
"; c #242425",
": c #272728",
"> c #282828",
", c gray17",
"< c #353536",
"1 c #39393A",
"2 c #3A3A3B",
"3 c #3F3F40",
"4 c #444445",
"5 c #535354",
"6 c #636364",
"7 c gray45",
"8 c #7F7F80",
"9 c None",
/* pixels */
"9999999999999999",
"9999999999999999",
"99999989 9999999",
"999999;92999 999",
"9999 <99 ,999999",
"999999     @-995",
"99999%      9999",
"9999;       4999",
"99927       X699",
"999 #       :999",
"99 99      #9999",
"9999o,O    -9999",
"9999*42O*999#999",
"9999999  9999999",
"9999999999999999",
"9999999999999999"
};
